<?xml version="1.0" encoding="UTF-8"?>
<svg xmlns="http://www.w3.org/2000/svg" width="32" height="32" viewBox="0 0 32 32" fill="none">
  <path d="M6.3998 3.99995C6.3998 3.78778 6.31552 3.5843 6.16549 3.43427C6.01546 3.28424 5.81198 3.19995 5.5998 3.19995C5.38763 3.19995 5.18415 3.28424 5.03412 3.43427C4.88409 3.5843 4.7998 3.78778 4.7998 3.99995V7.99995C4.79982 8.56165 4.94769 9.11346 5.22854 9.59991C5.5094 10.0864 5.91336 10.4903 6.3998 10.7712V12C6.3998 12.6365 6.65266 13.2469 7.10275 13.697C7.55284 14.1471 8.16329 14.4 8.7998 14.4H15.1998V20C15.1998 20.2121 15.2841 20.4156 15.4341 20.5656C15.5841 20.7157 15.7876 20.8 15.9998 20.8C16.212 20.8 16.4155 20.7157 16.5655 20.5656C16.7155 20.4156 16.7998 20.2121 16.7998 20V14.4H23.1998C23.8363 14.4 24.4468 14.1471 24.8969 13.697C25.3469 13.2469 25.5998 12.6365 25.5998 12V10.7712C26.0863 10.4903 26.4902 10.0864 26.7711 9.59991C27.0519 9.11346 27.1998 8.56165 27.1998 7.99995V3.99995C27.1998 3.78778 27.1155 3.5843 26.9655 3.43427C26.8155 3.28424 26.612 3.19995 26.3998 3.19995C26.1876 3.19995 25.9841 3.28424 25.8341 3.43427C25.6841 3.5843 25.5998 3.78778 25.5998 3.99995V7.99995C25.5998 8.4243 25.4312 8.83126 25.1312 9.13132C24.8311 9.43138 24.4242 9.59995 23.9998 9.59995H7.9998C7.57546 9.59995 7.16849 9.43138 6.86843 9.13132C6.56838 8.83126 6.3998 8.4243 6.3998 7.99995V3.99995ZM7.9998 11.2H23.9998V12C23.9998 12.2121 23.9155 12.4156 23.7655 12.5656C23.6155 12.7157 23.412 12.8 23.1998 12.8H8.7998C8.58763 12.8 8.38415 12.7157 8.23412 12.5656C8.08409 12.4156 7.9998 12.2121 7.9998 12V11.2ZM8.7998 22.4C8.58763 22.4 8.38415 22.4842 8.23412 22.6343C8.08409 22.7843 7.9998 22.9878 7.9998 23.2C7.9998 23.4121 8.08409 23.6156 8.23412 23.7656C8.38415 23.9157 8.58763 24 8.7998 24H11.1998C11.412 24 11.6155 23.9157 11.7655 23.7656C11.9155 23.6156 11.9998 23.4121 11.9998 23.2C11.9998 22.9878 11.9155 22.7843 11.7655 22.6343C11.6155 22.4842 11.412 22.4 11.1998 22.4H8.7998ZM19.9998 23.2C19.9998 22.9878 20.0841 22.7843 20.2341 22.6343C20.3841 22.4842 20.5876 22.4 20.7998 22.4H23.1998C23.412 22.4 23.6155 22.4842 23.7655 22.6343C23.9155 22.7843 23.9998 22.9878 23.9998 23.2C23.9998 23.4121 23.9155 23.6156 23.7655 23.7656C23.6155 23.9157 23.412 24 23.1998 24H20.7998C20.5876 24 20.3841 23.9157 20.2341 23.7656C20.0841 23.6156 19.9998 23.4121 19.9998 23.2ZM15.9998 24C16.212 24 16.4155 23.9157 16.5655 23.7656C16.7155 23.6156 16.7998 23.4121 16.7998 23.2C16.7998 22.9878 16.7155 22.7843 16.5655 22.6343C16.4155 22.4842 16.212 22.4 15.9998 22.4C15.7876 22.4 15.5841 22.4842 15.4341 22.6343C15.2841 22.7843 15.1998 22.9878 15.1998 23.2C15.1998 23.4121 15.2841 23.6156 15.4341 23.7656C15.5841 23.9157 15.7876 24 15.9998 24ZM15.9998 25.6C16.212 25.6 16.4155 25.6842 16.5655 25.8343C16.7155 25.9843 16.7998 26.1878 16.7998 26.4V29.6C16.7998 29.8121 16.7155 30.0156 16.5655 30.1656C16.4155 30.3157 16.212 30.4 15.9998 30.4C15.7876 30.4 15.5841 30.3157 15.4341 30.1656C15.2841 30.0156 15.1998 29.8121 15.1998 29.6V26.4C15.1998 26.1878 15.2841 25.9843 15.4341 25.8343C15.5841 25.6842 15.7876 25.6 15.9998 25.6ZM14.1662 25.3664C14.3164 25.2161 14.4008 25.0124 14.4008 24.8C14.4008 24.5875 14.3164 24.3838 14.1662 24.2336C14.016 24.0833 13.8122 23.9989 13.5998 23.9989C13.3874 23.9989 13.1836 24.0833 13.0334 24.2336L10.6334 26.6336C10.4832 26.7838 10.3988 26.9875 10.3988 27.2C10.3988 27.4124 10.4832 27.6161 10.6334 27.7664C10.7836 27.9166 10.9874 28.001 11.1998 28.001C11.4122 28.001 11.616 27.9166 11.7662 27.7664L14.1662 25.3664ZM17.8334 24.2336C17.7589 24.3079 17.6998 24.3961 17.6595 24.4933C17.6191 24.5905 17.5984 24.6947 17.5984 24.8C17.5984 24.9052 17.6191 25.0094 17.6595 25.1066C17.6998 25.2038 17.7589 25.292 17.8334 25.3664L20.2334 27.7664C20.3836 27.9166 20.5874 28.001 20.7998 28.001C21.0122 28.001 21.216 27.9166 21.3662 27.7664C21.5164 27.6161 21.6008 27.4124 21.6008 27.2C21.6008 26.9875 21.5164 26.7838 21.3662 26.6336L18.9662 24.2336C18.8919 24.159 18.8036 24.0999 18.7064 24.0596C18.6092 24.0193 18.505 23.9985 18.3998 23.9985C18.2946 23.9985 18.1904 24.0193 18.0932 24.0596C17.996 24.0999 17.9077 24.159 17.8334 24.2336Z" fill="#A38C7C"></path>
</svg>
