<?xml version="1.0" encoding="UTF-8"?>
<svg xmlns="http://www.w3.org/2000/svg" width="32" height="32" viewBox="0 0 32 32" fill="none">
  <path d="M12.0002 8.0001C12.6669 8.66677 14.0042 8.54944 16.0002 6.90144M16.0002 6.90144C15.7051 6.65966 15.3989 6.38144 15.0815 6.06677C12.0069 3.02144 7.82019 3.61744 5.85886 6.06677C4.50419 7.7601 1.03753 11.9734 9.52286 26.9868C9.87486 27.6081 10.5749 28.0001 11.3282 28.0001C12.5309 28.0001 13.4709 27.0401 13.5095 25.9201C13.5935 23.5441 14.0535 20.8041 16.0002 20.8041C17.9469 20.8041 18.4082 23.5441 18.4909 25.9201C18.5295 27.0401 19.4695 28.0001 20.6722 28.0001C21.4255 28.0001 22.1255 27.6081 22.4775 26.9868C30.9642 11.9721 27.4962 7.7601 26.1415 6.06677C24.1802 3.61744 19.9935 3.02144 16.9189 6.06677C16.6015 6.38055 16.2953 6.65877 16.0002 6.90144Z" stroke="#A38C7C" stroke-width="1.5" stroke-linecap="round" stroke-linejoin="round"></path>
</svg>
