<?xml version="1.0" encoding="UTF-8"?>
<svg xmlns="http://www.w3.org/2000/svg" width="32" height="32" viewBox="0 0 32 32" fill="none">
  <path d="M20.9293 20H10.6667C9.19333 20 8 18.7934 8 17.3054C8 15.8174 9.19733 14.6027 10.668 14.6694C16.9213 14.9547 20.3933 16.1974 21.8453 16.8694C22.3733 17.1147 22.6667 17.6574 22.6667 18.244C22.6679 18.4734 22.6239 18.7008 22.5373 18.9132C22.4506 19.1256 22.323 19.3188 22.1617 19.4819C22.0004 19.6449 21.8085 19.7746 21.597 19.8635C21.3856 19.9524 21.1587 19.9988 20.9293 20Z" stroke="#A38C7C" stroke-width="1.5" stroke-linecap="round" stroke-linejoin="round"></path>
  <path d="M22.6667 18.6668L27.92 4.64543C28.2 3.87876 27.72 3.05476 26.8707 2.83876C24.692 2.28543 22.4107 3.08143 21.6933 5.04676C20.8587 7.32809 20 10.8414 20 16.0001M20 10.6134C20 10.6134 15.492 8.75476 13.76 9.52009C13.24 9.74943 12.7973 10.1294 12.4853 10.6134C12 11.3681 12 12.4668 12 14.6668M8 17.3334V21.3334C8 22.5761 8 23.1974 7.79733 23.6868C7.66332 24.0105 7.46681 24.3047 7.21904 24.5525C6.97126 24.8002 6.67709 24.9967 6.35333 25.1308C5.864 25.3334 5.24267 25.3334 4 25.3334M16 20.0001V28.0001M13.3333 28.0001H18.6667" stroke="#A38C7C" stroke-width="1.5" stroke-linecap="round" stroke-linejoin="round"></path>
</svg>
