<?xml version="1.0" encoding="UTF-8"?>
<svg xmlns="http://www.w3.org/2000/svg" width="32" height="32" viewBox="0 0 32 32" fill="none">
  <path d="M19.3337 6.00008C19.3337 6.88414 18.9825 7.73198 18.3573 8.3571C17.7322 8.98222 16.8844 9.33341 16.0003 9.33341C15.1163 9.33341 14.2684 8.98222 13.6433 8.3571C13.0182 7.73198 12.667 6.88414 12.667 6.00008C12.667 5.11603 13.0182 4.26818 13.6433 3.64306C14.2684 3.01794 15.1163 2.66675 16.0003 2.66675C16.8844 2.66675 17.7322 3.01794 18.3573 3.64306C18.9825 4.26818 19.3337 5.11603 19.3337 6.00008Z" stroke="#A38C7C" stroke-width="1.33333"></path>
  <path d="M4 22.6668L7.452 20.9228C7.61745 20.839 7.75633 20.7108 7.8531 20.5525C7.94988 20.3943 8.00074 20.2123 8 20.0268C8 16.1068 10.8507 12.7548 14.676 12.1108C15.5525 11.9637 16.4475 11.9637 17.324 12.1108C21.1507 12.7548 24 16.1068 24 20.0268C24 20.4055 24.2133 20.7535 24.548 20.9228L28 22.6668" stroke="#A38C7C" stroke-width="1.33333" stroke-linecap="round" stroke-linejoin="round"></path>
  <path d="M12.6663 21.3337L11.277 23.1857L11.193 23.2977C10.8421 23.7411 10.3593 24.0614 9.81434 24.2124L9.67834 24.2471L7.69834 24.7417C7.02208 24.9103 6.42172 25.3005 5.99303 25.85C5.56433 26.3995 5.33197 27.0768 5.33301 27.7737C5.33301 28.6351 6.03168 29.3337 6.89434 29.3337H8.96901C9.76901 29.3337 10.169 29.3337 10.5557 29.2884C11.4627 29.1818 12.3381 28.89 13.1277 28.4311C13.465 28.2351 13.785 27.9951 14.4237 27.5151L14.6663 27.3337M14.6663 27.3337L17.333 25.3337M14.6663 27.3337L18.053 28.6031C18.8663 28.9084 19.2717 29.0604 19.6917 29.1591C19.9095 29.2097 20.1286 29.2497 20.349 29.2791C20.777 29.3337 21.2117 29.3337 22.0797 29.3337H25.105C25.3101 29.3339 25.5132 29.2937 25.7027 29.2152C25.8922 29.1368 26.0644 29.0218 26.2094 28.8768C26.3545 28.7318 26.4694 28.5596 26.5479 28.3701C26.6263 28.1806 26.6665 27.9775 26.6663 27.7724C26.6671 27.0757 26.4346 26.3987 26.0059 25.8495C25.5772 25.3002 24.9771 24.9103 24.301 24.7417L22.321 24.2484L22.185 24.2124C21.6401 24.0614 21.1573 23.7411 20.8063 23.2977L20.7223 23.1857L19.333 21.3337" stroke="#A38C7C" stroke-width="1.33333" stroke-linecap="round" stroke-linejoin="round"></path>
</svg>
